<svg xmlns="http://www.w3.org/2000/svg" xmlns:xlink="http://www.w3.org/1999/xlink" width="100" zoomAndPan="magnify" viewBox="0 0 375 374.999991" height="200" preserveAspectRatio="xMidYMid meet" version="1.0"><defs><filter x="0%" y="0%" width="100%" height="100%" id="93b3e9357c"><feColorMatrix values="0 0 0 0 1 0 0 0 0 1 0 0 0 0 1 0 0 0 1 0" color-interpolation-filters="sRGB"/></filter><g/><clipPath id="628b38af28"><path d="M 85.609375 146.6875 L 134.511719 146.6875 L 134.511719 189.539062 L 85.609375 189.539062 Z M 85.609375 146.6875 " clip-rule="nonzero"/></clipPath><clipPath id="6fb5de210e"><path d="M 85.609375 159.328125 C 85.609375 172.9375 110.035156 189.539062 110.035156 189.539062 C 110.035156 189.539062 134.351562 172.820312 134.460938 159.328125 C 134.460938 152.363281 128.78125 146.6875 121.816406 146.6875 C 116.464844 146.6875 111.851562 150.117188 110.035156 154.824219 C 108.21875 150.117188 103.605469 146.6875 98.253906 146.6875 C 91.289062 146.6875 85.609375 152.363281 85.609375 159.328125 " clip-rule="nonzero"/></clipPath><mask id="70fe35d28a"><g filter="url(#93b3e9357c)"><rect x="-37.5" width="450" fill="#000000" y="-37.499999" height="449.999989" fill-opacity="0.82"/></g></mask><clipPath id="e84a4f7071"><path d="M 0.597656 0.433594 L 39.515625 0.433594 L 39.515625 34.539062 L 0.597656 34.539062 Z M 0.597656 0.433594 " clip-rule="nonzero"/></clipPath><clipPath id="e7d94c5f0b"><path d="M 0.597656 10.496094 C 0.597656 21.328125 20.035156 34.539062 20.035156 34.539062 C 20.035156 34.539062 39.386719 21.234375 39.472656 10.496094 C 39.472656 4.953125 34.957031 0.433594 29.410156 0.433594 C 25.152344 0.433594 21.480469 3.164062 20.035156 6.914062 C 18.589844 3.164062 14.917969 0.433594 10.660156 0.433594 C 5.113281 0.433594 0.597656 4.953125 0.597656 10.496094 " clip-rule="nonzero"/></clipPath><clipPath id="e81a23689f"><rect x="0" width="40" y="0" height="35"/></clipPath><clipPath id="22326e8e66"><path d="M 83 160.148438 L 115.386719 160.148438 L 115.386719 195 L 83 195 Z M 83 160.148438 " clip-rule="nonzero"/></clipPath></defs><g clip-path="url(#628b38af28)"><g clip-path="url(#6fb5de210e)"><path fill="#64ebb6" d="M 85.609375 146.6875 L 134.414062 146.6875 L 134.414062 189.539062 L 85.609375 189.539062 Z M 85.609375 146.6875 " fill-opacity="1" fill-rule="nonzero"/></g></g><g mask="url(#70fe35d28a)"><g transform="matrix(1, 0, 0, 1, 90, 155)"><g clip-path="url(#e81a23689f)"><g clip-path="url(#e84a4f7071)"><g clip-path="url(#e7d94c5f0b)"><path fill="#1b9ce4" d="M 0.597656 0.433594 L 39.4375 0.433594 L 39.4375 34.539062 L 0.597656 34.539062 Z M 0.597656 0.433594 " fill-opacity="1" fill-rule="nonzero"/></g></g></g></g></g><g clip-path="url(#22326e8e66)"><path fill="#ffffff" d="M 105.128906 192.179688 L 105.128906 184.308594 C 105.128906 183.257812 105.976562 182.410156 107.027344 182.410156 L 113.492188 182.410156 C 114.539062 182.410156 115.390625 181.558594 115.390625 180.511719 L 115.390625 172.792969 C 115.390625 171.746094 114.539062 170.898438 113.492188 170.898438 C 113.492188 170.898438 112.773438 170.898438 111.816406 170.898438 C 110.859375 170.898438 109.660156 170.898438 108.703125 170.898438 C 107.679688 170.730469 106.242188 170.730469 105.761719 170.25 C 103.847656 167.375 107.679688 160.1875 101.730469 160.433594 C 100.875 160.429688 99.800781 160.429688 98.941406 160.429688 C 98.085938 160.429688 97.441406 160.429688 97.441406 160.429688 C 96.394531 160.429688 95.546875 161.277344 95.546875 162.324219 L 95.546875 169 C 95.546875 169.523438 95.332031 170 94.988281 170.339844 C 94.644531 170.683594 94.171875 170.898438 93.648438 170.90625 C 90.429688 172.167969 82.761719 169.292969 83.621094 174.8125 C 83.621094 175.9375 83.621094 177.367188 83.621094 178.511719 C 83.621094 179.65625 83.621094 180.511719 83.621094 180.511719 C 83.621094 181.558594 84.46875 182.410156 85.515625 182.410156 C 85.515625 182.410156 89.128906 182.410156 91.539062 182.410156 C 92.140625 182.410156 92.667969 182.410156 93.046875 182.410156 C 93.78125 182.230469 94.742188 182.710938 95.21875 183.1875 C 97.136719 187.023438 93.304688 195.648438 100.335938 194.078125 C 100.820312 194.078125 101.300781 194.078125 101.730469 194.078125 C 102.589844 194.078125 103.230469 194.078125 103.230469 194.078125 C 104.28125 194.078125 105.128906 193.226562 105.128906 192.179688 Z M 105.128906 192.179688 " fill-opacity="1" fill-rule="nonzero"/></g><path fill="#ffffff" d="M 113.636719 178.894531 C 113.789062 179.363281 113.714844 179.890625 113.414062 180.289062 C 113.105469 180.699219 112.601562 180.890625 112.113281 180.996094 C 111.53125 181.125 110.925781 181.164062 110.328125 181.210938 C 109.664062 181.261719 108.996094 181.289062 108.328125 181.296875 C 107.566406 181.300781 106.804688 181.277344 106.046875 181.226562 C 105.746094 181.207031 105.746094 181.675781 106.046875 181.695312 C 107.492188 181.792969 108.945312 181.789062 110.390625 181.675781 C 111.039062 181.625 111.703125 181.582031 112.335938 181.429688 C 112.886719 181.296875 113.425781 181.042969 113.78125 180.582031 C 114.171875 180.074219 114.289062 179.378906 114.089844 178.769531 C 113.996094 178.480469 113.539062 178.605469 113.636719 178.894531 Z M 113.636719 178.894531 " fill-opacity="1" fill-rule="nonzero"/><path fill="#ffffff" d="M 110.8125 179.96875 C 109.589844 180.148438 108.351562 180.195312 107.117188 180.117188 C 106.816406 180.101562 106.816406 180.570312 107.117188 180.589844 C 108.394531 180.667969 109.671875 180.605469 110.9375 180.421875 C 111.0625 180.402344 111.132812 180.242188 111.101562 180.132812 C 111.0625 179.996094 110.9375 179.949219 110.8125 179.96875 Z M 110.8125 179.96875 " fill-opacity="1" fill-rule="nonzero"/><path fill="#ffffff" d="M 96.546875 166.179688 C 96.308594 167.53125 96.671875 168.917969 96.386719 170.261719 C 96.269531 170.800781 96.054688 171.332031 95.65625 171.726562 C 95.222656 172.152344 94.621094 172.324219 94.035156 172.40625 C 93.242188 172.519531 92.421875 172.523438 91.621094 172.492188 C 91.316406 172.480469 91.316406 172.949219 91.621094 172.960938 C 92.382812 172.992188 93.15625 172.984375 93.917969 172.894531 C 94.570312 172.816406 95.226562 172.664062 95.757812 172.257812 C 96.777344 171.476562 96.980469 170.09375 96.964844 168.890625 C 96.949219 168.03125 96.851562 167.15625 97 166.304688 C 97.054688 166.007812 96.601562 165.878906 96.546875 166.179688 Z M 96.546875 166.179688 " fill-opacity="1" fill-rule="nonzero"/><path fill="#ffffff" d="M 97.273438 171.484375 C 97.4375 172.410156 96.605469 173.132812 95.804688 173.382812 C 94.792969 173.695312 93.714844 173.527344 92.671875 173.589844 C 92.371094 173.605469 92.371094 174.078125 92.671875 174.058594 C 93.839844 173.992188 95.066406 174.191406 96.179688 173.746094 C 97.140625 173.359375 97.921875 172.445312 97.726562 171.359375 C 97.675781 171.0625 97.222656 171.1875 97.273438 171.484375 Z M 97.273438 171.484375 " fill-opacity="1" fill-rule="nonzero"/><g fill="#183e9f" fill-opacity="1"><g transform="translate(138.736212, 165.637025)"><g><path d="M 9.5 0.578125 C 7.695312 0.578125 6.140625 0.222656 4.828125 -0.484375 C 3.515625 -1.191406 2.492188 -2.195312 1.765625 -3.5 C 1.046875 -4.800781 0.6875 -6.34375 0.6875 -8.125 C 0.6875 -9.90625 1.023438 -11.445312 1.703125 -12.75 C 2.390625 -14.050781 3.359375 -15.054688 4.609375 -15.765625 C 5.867188 -16.472656 7.351562 -16.828125 9.0625 -16.828125 C 10.40625 -16.828125 11.601562 -16.582031 12.65625 -16.09375 C 13.71875 -15.601562 14.585938 -14.910156 15.265625 -14.015625 C 15.953125 -13.117188 16.390625 -12.054688 16.578125 -10.828125 L 13.015625 -9.9375 C 12.816406 -11.03125 12.375 -11.894531 11.6875 -12.53125 C 11 -13.164062 10.125 -13.484375 9.0625 -13.484375 C 7.695312 -13.484375 6.609375 -13 5.796875 -12.03125 C 4.992188 -11.070312 4.59375 -9.769531 4.59375 -8.125 C 4.601562 -6.5 5.050781 -5.203125 5.9375 -4.234375 C 6.832031 -3.265625 8.035156 -2.78125 9.546875 -2.78125 C 10.785156 -2.78125 11.832031 -3.160156 12.6875 -3.921875 C 13.539062 -4.679688 14.066406 -5.703125 14.265625 -6.984375 L 17.921875 -6.484375 C 17.753906 -5.054688 17.296875 -3.8125 16.546875 -2.75 C 15.804688 -1.695312 14.832031 -0.878906 13.625 -0.296875 C 12.425781 0.285156 11.050781 0.578125 9.5 0.578125 Z M 9.5 0.578125 "/></g></g></g><g fill="#183e9f" fill-opacity="1"><g transform="translate(157.037772, 165.637025)"><g><path d="M 7.53125 -12.046875 C 8.550781 -12.046875 9.390625 -11.691406 10.046875 -10.984375 C 10.703125 -10.285156 11.097656 -9.28125 11.234375 -7.96875 L 8.28125 -7.171875 C 8.21875 -7.878906 8.03125 -8.429688 7.71875 -8.828125 C 7.414062 -9.222656 7.007812 -9.421875 6.5 -9.421875 C 5.851562 -9.421875 5.34375 -9.148438 4.96875 -8.609375 C 4.59375 -8.078125 4.40625 -7.332031 4.40625 -6.375 L 4.40625 0 L 0.90625 0 L 0.90625 -11.6875 L 3.703125 -11.6875 L 4.21875 -9.796875 L 4.25 -9.796875 C 4.5625 -10.503906 5.003906 -11.054688 5.578125 -11.453125 C 6.160156 -11.847656 6.8125 -12.046875 7.53125 -12.046875 Z M 7.53125 -12.046875 "/></g></g></g><g fill="#183e9f" fill-opacity="1"><g transform="translate(168.607463, 165.637025)"><g><path d="M 2.734375 -13.28125 C 2.128906 -13.28125 1.632812 -13.460938 1.25 -13.828125 C 0.875 -14.191406 0.6875 -14.671875 0.6875 -15.265625 C 0.6875 -15.878906 0.875 -16.367188 1.25 -16.734375 C 1.632812 -17.097656 2.128906 -17.28125 2.734375 -17.28125 C 3.359375 -17.28125 3.859375 -17.097656 4.234375 -16.734375 C 4.617188 -16.367188 4.8125 -15.878906 4.8125 -15.265625 C 4.8125 -14.671875 4.617188 -14.191406 4.234375 -13.828125 C 3.859375 -13.460938 3.359375 -13.28125 2.734375 -13.28125 Z M 1 0 L 1 -11.6875 L 4.46875 -11.6875 L 4.46875 0 Z M 1 0 "/></g></g></g><g fill="#183e9f" fill-opacity="1"><g transform="translate(174.107062, 165.637025)"><g><path d="M 6.140625 0.40625 C 5.085938 0.40625 4.140625 0.25 3.296875 -0.0625 C 2.453125 -0.375 1.773438 -0.828125 1.265625 -1.421875 C 0.753906 -2.023438 0.46875 -2.757812 0.40625 -3.625 L 3.453125 -3.96875 C 3.503906 -3.34375 3.800781 -2.84375 4.34375 -2.46875 C 4.882812 -2.101562 5.550781 -1.921875 6.34375 -1.921875 C 7 -1.921875 7.554688 -2.046875 8.015625 -2.296875 C 8.472656 -2.554688 8.703125 -2.882812 8.703125 -3.28125 C 8.703125 -3.632812 8.515625 -3.921875 8.140625 -4.140625 C 7.765625 -4.359375 7.164062 -4.539062 6.34375 -4.6875 L 4.609375 -4.953125 C 3.316406 -5.160156 2.378906 -5.523438 1.796875 -6.046875 C 1.222656 -6.566406 0.9375 -7.304688 0.9375 -8.265625 C 0.9375 -9.453125 1.398438 -10.382812 2.328125 -11.0625 C 3.253906 -11.75 4.460938 -12.09375 5.953125 -12.09375 C 6.878906 -12.09375 7.710938 -11.945312 8.453125 -11.65625 C 9.191406 -11.375 9.789062 -10.972656 10.25 -10.453125 C 10.71875 -9.929688 11 -9.332031 11.09375 -8.65625 L 8.125 -8.21875 C 8.082031 -8.71875 7.847656 -9.113281 7.421875 -9.40625 C 6.992188 -9.707031 6.46875 -9.859375 5.84375 -9.859375 C 5.289062 -9.859375 4.832031 -9.734375 4.46875 -9.484375 C 4.101562 -9.234375 3.914062 -8.929688 3.90625 -8.578125 C 3.90625 -8.296875 4.0625 -8.054688 4.375 -7.859375 C 4.6875 -7.660156 5.191406 -7.5 5.890625 -7.375 L 7.625 -7.078125 C 9.101562 -6.816406 10.171875 -6.40625 10.828125 -5.84375 C 11.492188 -5.289062 11.828125 -4.53125 11.828125 -3.5625 C 11.828125 -2.75 11.585938 -2.046875 11.109375 -1.453125 C 10.628906 -0.867188 9.960938 -0.410156 9.109375 -0.078125 C 8.253906 0.242188 7.265625 0.40625 6.140625 0.40625 Z M 6.140625 0.40625 "/></g></g></g><g fill="#183e9f" fill-opacity="1"><g transform="translate(186.315711, 165.637025)"><g><path d="M 2.734375 -13.28125 C 2.128906 -13.28125 1.632812 -13.460938 1.25 -13.828125 C 0.875 -14.191406 0.6875 -14.671875 0.6875 -15.265625 C 0.6875 -15.878906 0.875 -16.367188 1.25 -16.734375 C 1.632812 -17.097656 2.128906 -17.28125 2.734375 -17.28125 C 3.359375 -17.28125 3.859375 -17.097656 4.234375 -16.734375 C 4.617188 -16.367188 4.8125 -15.878906 4.8125 -15.265625 C 4.8125 -14.671875 4.617188 -14.191406 4.234375 -13.828125 C 3.859375 -13.460938 3.359375 -13.28125 2.734375 -13.28125 Z M 1 0 L 1 -11.6875 L 4.46875 -11.6875 L 4.46875 0 Z M 1 0 "/></g></g></g><g fill="#183e9f" fill-opacity="1"><g transform="translate(191.815311, 165.637025)"><g><path d="M 6.140625 0.40625 C 5.085938 0.40625 4.140625 0.25 3.296875 -0.0625 C 2.453125 -0.375 1.773438 -0.828125 1.265625 -1.421875 C 0.753906 -2.023438 0.46875 -2.757812 0.40625 -3.625 L 3.453125 -3.96875 C 3.503906 -3.34375 3.800781 -2.84375 4.34375 -2.46875 C 4.882812 -2.101562 5.550781 -1.921875 6.34375 -1.921875 C 7 -1.921875 7.554688 -2.046875 8.015625 -2.296875 C 8.472656 -2.554688 8.703125 -2.882812 8.703125 -3.28125 C 8.703125 -3.632812 8.515625 -3.921875 8.140625 -4.140625 C 7.765625 -4.359375 7.164062 -4.539062 6.34375 -4.6875 L 4.609375 -4.953125 C 3.316406 -5.160156 2.378906 -5.523438 1.796875 -6.046875 C 1.222656 -6.566406 0.9375 -7.304688 0.9375 -8.265625 C 0.9375 -9.453125 1.398438 -10.382812 2.328125 -11.0625 C 3.253906 -11.75 4.460938 -12.09375 5.953125 -12.09375 C 6.878906 -12.09375 7.710938 -11.945312 8.453125 -11.65625 C 9.191406 -11.375 9.789062 -10.972656 10.25 -10.453125 C 10.71875 -9.929688 11 -9.332031 11.09375 -8.65625 L 8.125 -8.21875 C 8.082031 -8.71875 7.847656 -9.113281 7.421875 -9.40625 C 6.992188 -9.707031 6.46875 -9.859375 5.84375 -9.859375 C 5.289062 -9.859375 4.832031 -9.734375 4.46875 -9.484375 C 4.101562 -9.234375 3.914062 -8.929688 3.90625 -8.578125 C 3.90625 -8.296875 4.0625 -8.054688 4.375 -7.859375 C 4.6875 -7.660156 5.191406 -7.5 5.890625 -7.375 L 7.625 -7.078125 C 9.101562 -6.816406 10.171875 -6.40625 10.828125 -5.84375 C 11.492188 -5.289062 11.828125 -4.53125 11.828125 -3.5625 C 11.828125 -2.75 11.585938 -2.046875 11.109375 -1.453125 C 10.628906 -0.867188 9.960938 -0.410156 9.109375 -0.078125 C 8.253906 0.242188 7.265625 0.40625 6.140625 0.40625 Z M 6.140625 0.40625 "/></g></g></g><g fill="#183e9f" fill-opacity="1"><g transform="translate(138.736212, 184.426104)"><g><path d="M 9.5 0.578125 C 7.695312 0.578125 6.140625 0.222656 4.828125 -0.484375 C 3.515625 -1.191406 2.492188 -2.195312 1.765625 -3.5 C 1.046875 -4.800781 0.6875 -6.34375 0.6875 -8.125 C 0.6875 -9.90625 1.023438 -11.445312 1.703125 -12.75 C 2.390625 -14.050781 3.359375 -15.054688 4.609375 -15.765625 C 5.867188 -16.472656 7.351562 -16.828125 9.0625 -16.828125 C 10.40625 -16.828125 11.601562 -16.582031 12.65625 -16.09375 C 13.71875 -15.601562 14.585938 -14.910156 15.265625 -14.015625 C 15.953125 -13.117188 16.390625 -12.054688 16.578125 -10.828125 L 13.015625 -9.9375 C 12.816406 -11.03125 12.375 -11.894531 11.6875 -12.53125 C 11 -13.164062 10.125 -13.484375 9.0625 -13.484375 C 7.695312 -13.484375 6.609375 -13 5.796875 -12.03125 C 4.992188 -11.070312 4.59375 -9.769531 4.59375 -8.125 C 4.601562 -6.5 5.050781 -5.203125 5.9375 -4.234375 C 6.832031 -3.265625 8.035156 -2.78125 9.546875 -2.78125 C 10.785156 -2.78125 11.832031 -3.160156 12.6875 -3.921875 C 13.539062 -4.679688 14.066406 -5.703125 14.265625 -6.984375 L 17.921875 -6.484375 C 17.753906 -5.054688 17.296875 -3.8125 16.546875 -2.75 C 15.804688 -1.695312 14.832031 -0.878906 13.625 -0.296875 C 12.425781 0.285156 11.050781 0.578125 9.5 0.578125 Z M 9.5 0.578125 "/></g></g></g><g fill="#183e9f" fill-opacity="1"><g transform="translate(157.037772, 184.426104)"><g><path d="M 7.015625 0.453125 C 5.710938 0.453125 4.570312 0.195312 3.59375 -0.3125 C 2.625 -0.832031 1.867188 -1.566406 1.328125 -2.515625 C 0.796875 -3.472656 0.53125 -4.582031 0.53125 -5.84375 C 0.53125 -7.125 0.796875 -8.234375 1.328125 -9.171875 C 1.867188 -10.117188 2.625 -10.847656 3.59375 -11.359375 C 4.570312 -11.878906 5.710938 -12.140625 7.015625 -12.140625 C 8.316406 -12.140625 9.453125 -11.878906 10.421875 -11.359375 C 11.398438 -10.847656 12.160156 -10.117188 12.703125 -9.171875 C 13.242188 -8.234375 13.515625 -7.125 13.515625 -5.84375 C 13.515625 -4.582031 13.242188 -3.472656 12.703125 -2.515625 C 12.160156 -1.566406 11.398438 -0.832031 10.421875 -0.3125 C 9.453125 0.195312 8.316406 0.453125 7.015625 0.453125 Z M 7.015625 -2.4375 C 7.953125 -2.4375 8.691406 -2.738281 9.234375 -3.34375 C 9.785156 -3.957031 10.0625 -4.789062 10.0625 -5.84375 C 10.0625 -6.894531 9.785156 -7.722656 9.234375 -8.328125 C 8.691406 -8.941406 7.953125 -9.25 7.015625 -9.25 C 6.078125 -9.25 5.332031 -8.941406 4.78125 -8.328125 C 4.226562 -7.722656 3.953125 -6.894531 3.953125 -5.84375 C 3.953125 -4.789062 4.226562 -3.957031 4.78125 -3.34375 C 5.332031 -2.738281 6.078125 -2.4375 7.015625 -2.4375 Z M 7.015625 -2.4375 "/></g></g></g><g fill="#183e9f" fill-opacity="1"><g transform="translate(171.049189, 184.426104)"><g><path d="M 8.5625 -12.03125 C 9.757812 -12.03125 10.703125 -11.679688 11.390625 -10.984375 C 12.078125 -10.285156 12.421875 -9.3125 12.421875 -8.0625 L 12.421875 0 L 8.921875 0 L 8.921875 -6.984375 C 8.921875 -7.648438 8.742188 -8.171875 8.390625 -8.546875 C 8.046875 -8.929688 7.570312 -9.125 6.96875 -9.125 C 6.21875 -9.125 5.601562 -8.878906 5.125 -8.390625 C 4.644531 -7.910156 4.40625 -7.265625 4.40625 -6.453125 L 4.40625 0 L 0.90625 0 L 0.90625 -11.6875 L 3.859375 -11.6875 L 4.390625 -9.5625 L 4.40625 -9.5625 C 4.832031 -10.351562 5.398438 -10.960938 6.109375 -11.390625 C 6.816406 -11.816406 7.632812 -12.03125 8.5625 -12.03125 Z M 8.5625 -12.03125 "/></g></g></g><g fill="#183e9f" fill-opacity="1"><g transform="translate(184.30755, 184.426104)"><g><path d="M 8.5625 -12.03125 C 9.757812 -12.03125 10.703125 -11.679688 11.390625 -10.984375 C 12.078125 -10.285156 12.421875 -9.3125 12.421875 -8.0625 L 12.421875 0 L 8.921875 0 L 8.921875 -6.984375 C 8.921875 -7.648438 8.742188 -8.171875 8.390625 -8.546875 C 8.046875 -8.929688 7.570312 -9.125 6.96875 -9.125 C 6.21875 -9.125 5.601562 -8.878906 5.125 -8.390625 C 4.644531 -7.910156 4.40625 -7.265625 4.40625 -6.453125 L 4.40625 0 L 0.90625 0 L 0.90625 -11.6875 L 3.859375 -11.6875 L 4.390625 -9.5625 L 4.40625 -9.5625 C 4.832031 -10.351562 5.398438 -10.960938 6.109375 -11.390625 C 6.816406 -11.816406 7.632812 -12.03125 8.5625 -12.03125 Z M 8.5625 -12.03125 "/></g></g></g><g fill="#183e9f" fill-opacity="1"><g transform="translate(197.56591, 184.426104)"><g><path d="M 7.515625 0.453125 C 6.140625 0.453125 4.925781 0.179688 3.875 -0.359375 C 2.832031 -0.898438 2.015625 -1.648438 1.421875 -2.609375 C 0.828125 -3.566406 0.53125 -4.664062 0.53125 -5.90625 C 0.53125 -7.144531 0.789062 -8.226562 1.3125 -9.15625 C 1.832031 -10.09375 2.566406 -10.820312 3.515625 -11.34375 C 4.472656 -11.875 5.578125 -12.140625 6.828125 -12.140625 C 8.046875 -12.140625 9.109375 -11.890625 10.015625 -11.390625 C 10.921875 -10.890625 11.625 -10.191406 12.125 -9.296875 C 12.632812 -8.410156 12.890625 -7.378906 12.890625 -6.203125 C 12.890625 -5.972656 12.875 -5.738281 12.84375 -5.5 C 12.820312 -5.269531 12.785156 -5.066406 12.734375 -4.890625 L 4.109375 -4.890625 C 4.210938 -4.046875 4.585938 -3.367188 5.234375 -2.859375 C 5.878906 -2.347656 6.679688 -2.09375 7.640625 -2.09375 C 8.378906 -2.09375 9.066406 -2.238281 9.703125 -2.53125 C 10.335938 -2.832031 10.820312 -3.222656 11.15625 -3.703125 L 13.15625 -2.171875 C 12.675781 -1.390625 11.929688 -0.753906 10.921875 -0.265625 C 9.910156 0.210938 8.773438 0.453125 7.515625 0.453125 Z M 4.09375 -6.890625 L 9.359375 -6.890625 C 9.296875 -7.753906 9.035156 -8.429688 8.578125 -8.921875 C 8.128906 -9.410156 7.546875 -9.65625 6.828125 -9.65625 C 6.097656 -9.65625 5.484375 -9.398438 4.984375 -8.890625 C 4.492188 -8.378906 4.195312 -7.710938 4.09375 -6.890625 Z M 4.09375 -6.890625 "/></g></g></g><g fill="#183e9f" fill-opacity="1"><g transform="translate(211.143755, 184.426104)"><g><path d="M 6.828125 0.453125 C 5.578125 0.453125 4.472656 0.1875 3.515625 -0.34375 C 2.566406 -0.875 1.832031 -1.609375 1.3125 -2.546875 C 0.789062 -3.492188 0.53125 -4.59375 0.53125 -5.84375 C 0.53125 -7.09375 0.78125 -8.1875 1.28125 -9.125 C 1.789062 -10.070312 2.503906 -10.8125 3.421875 -11.34375 C 4.347656 -11.875 5.414062 -12.140625 6.625 -12.140625 C 7.613281 -12.140625 8.503906 -11.957031 9.296875 -11.59375 C 10.097656 -11.226562 10.765625 -10.71875 11.296875 -10.0625 C 11.828125 -9.40625 12.175781 -8.644531 12.34375 -7.78125 L 9.171875 -6.96875 C 9.054688 -7.726562 8.765625 -8.304688 8.296875 -8.703125 C 7.835938 -9.109375 7.3125 -9.3125 6.71875 -9.3125 C 5.925781 -9.3125 5.273438 -8.988281 4.765625 -8.34375 C 4.253906 -7.707031 4 -6.875 4 -5.84375 C 4.007812 -4.8125 4.289062 -3.972656 4.84375 -3.328125 C 5.40625 -2.691406 6.101562 -2.375 6.9375 -2.375 C 7.664062 -2.375 8.289062 -2.625 8.8125 -3.125 C 9.34375 -3.625 9.65625 -4.269531 9.75 -5.0625 L 12.984375 -4.609375 C 12.878906 -3.609375 12.546875 -2.726562 11.984375 -1.96875 C 11.429688 -1.207031 10.707031 -0.613281 9.8125 -0.1875 C 8.925781 0.238281 7.929688 0.453125 6.828125 0.453125 Z M 6.828125 0.453125 "/></g></g></g><g fill="#183e9f" fill-opacity="1"><g transform="translate(224.516214, 184.426104)"><g><path d="M 6.84375 0.453125 C 5.445312 0.453125 4.34375 0.0664062 3.53125 -0.703125 C 2.71875 -1.484375 2.3125 -2.535156 2.3125 -3.859375 L 2.3125 -9.046875 L 0.109375 -9.046875 L 0.109375 -11.6875 L 2.3125 -11.6875 L 2.3125 -14.90625 L 5.796875 -15.65625 L 5.796875 -11.6875 L 10.4375 -11.6875 L 10.4375 -9.046875 L 5.796875 -9.046875 L 5.796875 -4.40625 C 5.796875 -3.769531 5.96875 -3.265625 6.3125 -2.890625 C 6.664062 -2.523438 7.101562 -2.34375 7.625 -2.34375 C 8.65625 -2.34375 9.445312 -2.847656 10 -3.859375 L 11.046875 -1.671875 C 10.640625 -1.015625 10.050781 -0.492188 9.28125 -0.109375 C 8.507812 0.265625 7.695312 0.453125 6.84375 0.453125 Z M 6.84375 0.453125 "/></g></g></g></svg>